<svg width="20" height="20" viewBox="0 0 20 20" fill="none" xmlns="http://www.w3.org/2000/svg">
<g id="icons / 24px / outlined /  globe">
<path id="Union" fill-rule="evenodd" clip-rule="evenodd" d="M3.1175 9.29258H6.27626C6.4429 7.12872 7.17537 5.05264 8.39151 3.26974C5.56902 3.94183 3.41707 6.34338 3.1175 9.29258ZM10.0001 3.46741C8.68218 5.14292 7.88094 7.16769 7.69601 9.29258H12.3042C12.1192 7.16769 11.318 5.14292 10.0001 3.46741ZM12.3042 10.7076C12.1192 12.8325 11.318 14.8572 10.0001 16.5328C8.68218 14.8572 7.88094 12.8325 7.69601 10.7076H12.3042ZM6.27626 10.7076H3.1175C3.41707 13.6568 5.56901 16.0583 8.39151 16.7304C7.17537 14.9475 6.4429 12.8714 6.27626 10.7076ZM11.6087 16.7304C12.8248 14.9475 13.5573 12.8714 13.7239 10.7076H16.8827C16.5831 13.6568 14.4312 16.0583 11.6087 16.7304ZM16.8827 9.29258H13.7239C13.5573 7.12872 12.8248 5.05264 11.6086 3.26974C14.4311 3.94183 16.5831 6.34338 16.8827 9.29258ZM1.66675 10.0001C1.66675 5.39771 5.39771 1.66675 10.0001 1.66675C14.6025 1.66675 18.3334 5.39771 18.3334 10.0001C18.3334 14.6025 14.6025 18.3334 10.0001 18.3334C5.39771 18.3334 1.66675 14.6025 1.66675 10.0001Z" fill="#1A1C1E"/>
</g>
</svg>
