<svg width="20" height="20" viewBox="0 0 20 20" fill="none" xmlns="http://www.w3.org/2000/svg">
<g id="logo / 24px / telegram">
<rect id="Vector" x="4.16675" y="4.16675" width="11.6667" height="11.6667" fill="white"/>
<path id="Vector_2" d="M9.96119 1.66677C7.7578 1.67705 5.64816 2.55957 4.09376 4.12126C2.53936 5.68295 1.66672 7.7967 1.66675 10.0001C1.66675 12.2103 2.54472 14.3299 4.10752 15.8927C5.67033 17.4555 7.78994 18.3335 10.0001 18.3335C12.2102 18.3335 14.3298 17.4555 15.8926 15.8927C17.4554 14.3299 18.3334 12.2103 18.3334 10.0001C18.3334 7.78997 17.4554 5.67036 15.8926 4.10755C14.3298 2.54475 12.2102 1.66677 10.0001 1.66677C9.98712 1.66674 9.97416 1.66674 9.96119 1.66677ZM13.407 6.68344C13.4765 6.68205 13.6299 6.69942 13.7299 6.78067C13.7964 6.83837 13.8388 6.91891 13.8487 7.00636C13.8598 7.07094 13.8737 7.21886 13.8626 7.33414C13.7376 8.6522 13.1945 11.8494 12.9181 13.3251C12.8015 13.9501 12.5716 14.1591 12.3487 14.1793C11.8654 14.2244 11.498 13.8598 11.0292 13.5529C10.2959 13.0716 9.88133 12.7723 9.16953 12.3029C8.34661 11.7612 8.87994 11.4626 9.34869 10.9765C9.47161 10.8487 11.6036 8.90914 11.6452 8.73345C11.6501 8.71122 11.6549 8.62928 11.6063 8.58622C11.5577 8.54317 11.4855 8.55775 11.4334 8.56956C11.3598 8.58622 10.1883 9.36122 7.91883 10.8925C7.5855 11.1216 7.2848 11.2328 7.01466 11.2258C6.71744 11.2203 6.14522 11.0584 5.71953 10.9203C5.1973 10.7501 4.78272 10.6605 4.81883 10.3723C4.83758 10.2223 5.04453 10.0689 5.43897 9.91192C7.86814 8.85359 9.48758 8.15567 10.2987 7.81886C12.6126 6.85636 13.0938 6.689 13.407 6.68344Z" fill="url(#paint0_linear_1516_1733)"/>
</g>
<defs>
<linearGradient id="paint0_linear_1516_1733" x1="10.0001" y1="1.66675" x2="10.0001" y2="18.2098" gradientUnits="userSpaceOnUse">
<stop stop-color="#2AABEE"/>
<stop offset="1" stop-color="#229ED9"/>
</linearGradient>
</defs>
</svg>
